<mxfile host="Electron" agent="Mozilla/5.0 (Windows NT 10.0; Win64; x64) AppleWebKit/537.36 (KHTML, like Gecko) draw.io/26.2.2 Chrome/134.0.6998.178 Electron/35.1.2 Safari/537.36" version="26.2.2">
  <diagram name="PÃ¡gina-1" id="MIWXQ_i0paSjryoS9A2c">
    <mxGraphModel dx="2780" dy="737" grid="1" gridSize="10" guides="1" tooltips="1" connect="1" arrows="1" fold="1" page="1" pageScale="1" pageWidth="827" pageHeight="1169" math="0" shadow="0">
      <root>
        <mxCell id="0" />
        <mxCell id="1" parent="0" />
        <mxCell id="NklmTFZ0WCMY-WN7cFQz-4" value="" style="edgeStyle=orthogonalEdgeStyle;rounded=0;orthogonalLoop=1;jettySize=auto;html=1;entryX=0.5;entryY=0;entryDx=0;entryDy=0;" edge="1" parent="1" source="NklmTFZ0WCMY-WN7cFQz-1" target="NklmTFZ0WCMY-WN7cFQz-3">
          <mxGeometry relative="1" as="geometry">
            <Array as="points">
              <mxPoint x="495" y="190" />
              <mxPoint x="240" y="190" />
            </Array>
          </mxGeometry>
        </mxCell>
        <mxCell id="NklmTFZ0WCMY-WN7cFQz-11" value="" style="edgeStyle=orthogonalEdgeStyle;rounded=0;orthogonalLoop=1;jettySize=auto;html=1;entryX=0.5;entryY=0;entryDx=0;entryDy=0;" edge="1" parent="1" source="NklmTFZ0WCMY-WN7cFQz-1" target="NklmTFZ0WCMY-WN7cFQz-44">
          <mxGeometry relative="1" as="geometry">
            <Array as="points">
              <mxPoint x="495" y="190" />
              <mxPoint x="-400" y="190" />
            </Array>
          </mxGeometry>
        </mxCell>
        <mxCell id="NklmTFZ0WCMY-WN7cFQz-60" style="edgeStyle=orthogonalEdgeStyle;rounded=0;orthogonalLoop=1;jettySize=auto;html=1;entryX=0.5;entryY=0;entryDx=0;entryDy=0;" edge="1" parent="1" source="NklmTFZ0WCMY-WN7cFQz-1" target="NklmTFZ0WCMY-WN7cFQz-59">
          <mxGeometry relative="1" as="geometry">
            <Array as="points">
              <mxPoint x="495" y="190" />
              <mxPoint x="970" y="190" />
            </Array>
          </mxGeometry>
        </mxCell>
        <mxCell id="NklmTFZ0WCMY-WN7cFQz-81" value="" style="edgeStyle=orthogonalEdgeStyle;rounded=0;orthogonalLoop=1;jettySize=auto;html=1;entryX=0.5;entryY=0;entryDx=0;entryDy=0;" edge="1" parent="1" source="NklmTFZ0WCMY-WN7cFQz-1" target="NklmTFZ0WCMY-WN7cFQz-80">
          <mxGeometry relative="1" as="geometry">
            <Array as="points">
              <mxPoint x="495" y="190" />
              <mxPoint x="2155" y="190" />
            </Array>
          </mxGeometry>
        </mxCell>
        <mxCell id="NklmTFZ0WCMY-WN7cFQz-144" style="edgeStyle=orthogonalEdgeStyle;rounded=0;orthogonalLoop=1;jettySize=auto;html=1;entryX=0.5;entryY=0;entryDx=0;entryDy=0;" edge="1" parent="1" source="NklmTFZ0WCMY-WN7cFQz-1" target="NklmTFZ0WCMY-WN7cFQz-143">
          <mxGeometry relative="1" as="geometry">
            <mxPoint x="2617.777777777778" y="150" as="targetPoint" />
            <Array as="points">
              <mxPoint x="495" y="190" />
              <mxPoint x="3365" y="190" />
            </Array>
          </mxGeometry>
        </mxCell>
        <mxCell id="NklmTFZ0WCMY-WN7cFQz-1" value="Automated chair&amp;nbsp;&lt;span style=&quot;background-color: transparent; color: light-dark(rgb(0, 0, 0), rgb(255, 255, 255));&quot;&gt;production line&lt;/span&gt;" style="rounded=1;whiteSpace=wrap;html=1;fillColor=#fff2cc;strokeColor=#d6b656;" vertex="1" parent="1">
          <mxGeometry x="430" y="60" width="130" height="70" as="geometry" />
        </mxCell>
        <mxCell id="NklmTFZ0WCMY-WN7cFQz-6" value="" style="edgeStyle=orthogonalEdgeStyle;rounded=0;orthogonalLoop=1;jettySize=auto;html=1;entryX=0.5;entryY=0;entryDx=0;entryDy=0;" edge="1" parent="1" source="NklmTFZ0WCMY-WN7cFQz-3" target="NklmTFZ0WCMY-WN7cFQz-5">
          <mxGeometry relative="1" as="geometry">
            <Array as="points">
              <mxPoint x="240" y="310" />
              <mxPoint x="90" y="310" />
            </Array>
          </mxGeometry>
        </mxCell>
        <mxCell id="NklmTFZ0WCMY-WN7cFQz-50" value="" style="edgeStyle=orthogonalEdgeStyle;rounded=0;orthogonalLoop=1;jettySize=auto;html=1;entryX=0.5;entryY=0;entryDx=0;entryDy=0;" edge="1" parent="1" source="NklmTFZ0WCMY-WN7cFQz-3" target="NklmTFZ0WCMY-WN7cFQz-49">
          <mxGeometry relative="1" as="geometry">
            <Array as="points">
              <mxPoint x="240" y="310" />
              <mxPoint x="285" y="310" />
            </Array>
          </mxGeometry>
        </mxCell>
        <mxCell id="NklmTFZ0WCMY-WN7cFQz-56" style="edgeStyle=orthogonalEdgeStyle;rounded=0;orthogonalLoop=1;jettySize=auto;html=1;entryX=0.5;entryY=0;entryDx=0;entryDy=0;" edge="1" parent="1" source="NklmTFZ0WCMY-WN7cFQz-3" target="NklmTFZ0WCMY-WN7cFQz-55">
          <mxGeometry relative="1" as="geometry">
            <Array as="points">
              <mxPoint x="240" y="310" />
              <mxPoint x="575" y="310" />
            </Array>
          </mxGeometry>
        </mxCell>
        <mxCell id="NklmTFZ0WCMY-WN7cFQz-3" value="2. Researched state of art" style="whiteSpace=wrap;html=1;rounded=1;fillColor=#fff2cc;strokeColor=#d6b656;" vertex="1" parent="1">
          <mxGeometry x="180" y="230" width="120" height="60" as="geometry" />
        </mxCell>
        <mxCell id="NklmTFZ0WCMY-WN7cFQz-5" value="2.1. Found chair models technical features" style="whiteSpace=wrap;html=1;rounded=1;fillColor=#fff2cc;strokeColor=#d6b656;" vertex="1" parent="1">
          <mxGeometry x="30" y="350" width="120" height="60" as="geometry" />
        </mxCell>
        <mxCell id="NklmTFZ0WCMY-WN7cFQz-12" value="1.1. Created WBS" style="whiteSpace=wrap;html=1;rounded=1;fillColor=#dae8fc;strokeColor=#6c8ebf;" vertex="1" parent="1">
          <mxGeometry x="-840" y="390" width="120" height="60" as="geometry" />
        </mxCell>
        <mxCell id="NklmTFZ0WCMY-WN7cFQz-14" value="1.2. Created schedule" style="whiteSpace=wrap;html=1;rounded=1;fillColor=#d5e8d4;strokeColor=#82b366;" vertex="1" parent="1">
          <mxGeometry x="-680" y="390" width="120" height="60" as="geometry" />
        </mxCell>
        <mxCell id="NklmTFZ0WCMY-WN7cFQz-19" value="" style="edgeStyle=orthogonalEdgeStyle;rounded=0;orthogonalLoop=1;jettySize=auto;html=1;entryX=0.5;entryY=0;entryDx=0;entryDy=0;" edge="1" parent="1" source="NklmTFZ0WCMY-WN7cFQz-16" target="NklmTFZ0WCMY-WN7cFQz-18">
          <mxGeometry relative="1" as="geometry">
            <Array as="points">
              <mxPoint x="-470" y="500" />
              <mxPoint x="-700" y="500" />
            </Array>
          </mxGeometry>
        </mxCell>
        <mxCell id="NklmTFZ0WCMY-WN7cFQz-22" value="" style="edgeStyle=orthogonalEdgeStyle;rounded=0;orthogonalLoop=1;jettySize=auto;html=1;" edge="1" parent="1" source="NklmTFZ0WCMY-WN7cFQz-16" target="NklmTFZ0WCMY-WN7cFQz-21">
          <mxGeometry relative="1" as="geometry">
            <Array as="points">
              <mxPoint x="-470" y="500" />
              <mxPoint x="-560" y="500" />
            </Array>
          </mxGeometry>
        </mxCell>
        <mxCell id="NklmTFZ0WCMY-WN7cFQz-26" style="edgeStyle=orthogonalEdgeStyle;rounded=0;orthogonalLoop=1;jettySize=auto;html=1;entryX=0.5;entryY=0;entryDx=0;entryDy=0;" edge="1" parent="1" source="NklmTFZ0WCMY-WN7cFQz-16" target="NklmTFZ0WCMY-WN7cFQz-27">
          <mxGeometry relative="1" as="geometry">
            <mxPoint x="-420" y="550" as="targetPoint" />
            <Array as="points">
              <mxPoint x="-470" y="500" />
              <mxPoint x="-420" y="500" />
            </Array>
          </mxGeometry>
        </mxCell>
        <mxCell id="NklmTFZ0WCMY-WN7cFQz-29" style="edgeStyle=orthogonalEdgeStyle;rounded=0;orthogonalLoop=1;jettySize=auto;html=1;entryX=0.5;entryY=0;entryDx=0;entryDy=0;" edge="1" parent="1" source="NklmTFZ0WCMY-WN7cFQz-16" target="NklmTFZ0WCMY-WN7cFQz-28">
          <mxGeometry relative="1" as="geometry">
            <Array as="points">
              <mxPoint x="-470" y="500" />
              <mxPoint x="-270" y="500" />
            </Array>
          </mxGeometry>
        </mxCell>
        <mxCell id="NklmTFZ0WCMY-WN7cFQz-16" value="1.3. Created matrices" style="whiteSpace=wrap;html=1;rounded=1;fillColor=#fff2cc;strokeColor=#d6b656;" vertex="1" parent="1">
          <mxGeometry x="-530" y="390" width="120" height="60" as="geometry" />
        </mxCell>
        <mxCell id="NklmTFZ0WCMY-WN7cFQz-18" value="1.3.1. Created procurement matrix" style="whiteSpace=wrap;html=1;rounded=1;fillColor=#fff2cc;strokeColor=#d6b656;" vertex="1" parent="1">
          <mxGeometry x="-760" y="530" width="120" height="60" as="geometry" />
        </mxCell>
        <mxCell id="NklmTFZ0WCMY-WN7cFQz-21" value="1.3.2. Created risk matrix" style="whiteSpace=wrap;html=1;rounded=1;fillColor=#fff2cc;strokeColor=#d6b656;" vertex="1" parent="1">
          <mxGeometry x="-620" y="530" width="120" height="60" as="geometry" />
        </mxCell>
        <mxCell id="NklmTFZ0WCMY-WN7cFQz-27" value="1.3.3.&amp;nbsp;Created communications matrix" style="whiteSpace=wrap;html=1;rounded=1;fillColor=#fff2cc;strokeColor=#d6b656;" vertex="1" parent="1">
          <mxGeometry x="-480" y="530" width="120" height="60" as="geometry" />
        </mxCell>
        <mxCell id="NklmTFZ0WCMY-WN7cFQz-28" value="1.3.4.&amp;nbsp;Created RACI matrix" style="whiteSpace=wrap;html=1;rounded=1;fillColor=#fff2cc;strokeColor=#d6b656;" vertex="1" parent="1">
          <mxGeometry x="-330" y="530" width="120" height="60" as="geometry" />
        </mxCell>
        <mxCell id="NklmTFZ0WCMY-WN7cFQz-175" style="edgeStyle=orthogonalEdgeStyle;rounded=0;orthogonalLoop=1;jettySize=auto;html=1;entryX=0.5;entryY=0;entryDx=0;entryDy=0;" edge="1" parent="1" source="NklmTFZ0WCMY-WN7cFQz-44" target="NklmTFZ0WCMY-WN7cFQz-12">
          <mxGeometry relative="1" as="geometry">
            <Array as="points">
              <mxPoint x="-400" y="340" />
              <mxPoint x="-780" y="340" />
            </Array>
          </mxGeometry>
        </mxCell>
        <mxCell id="NklmTFZ0WCMY-WN7cFQz-176" style="edgeStyle=orthogonalEdgeStyle;rounded=0;orthogonalLoop=1;jettySize=auto;html=1;entryX=0.5;entryY=0;entryDx=0;entryDy=0;" edge="1" parent="1" source="NklmTFZ0WCMY-WN7cFQz-44" target="NklmTFZ0WCMY-WN7cFQz-14">
          <mxGeometry relative="1" as="geometry">
            <Array as="points">
              <mxPoint x="-400" y="340" />
              <mxPoint x="-620" y="340" />
            </Array>
          </mxGeometry>
        </mxCell>
        <mxCell id="NklmTFZ0WCMY-WN7cFQz-177" style="edgeStyle=orthogonalEdgeStyle;rounded=0;orthogonalLoop=1;jettySize=auto;html=1;entryX=0.5;entryY=0;entryDx=0;entryDy=0;" edge="1" parent="1" source="NklmTFZ0WCMY-WN7cFQz-44" target="NklmTFZ0WCMY-WN7cFQz-16">
          <mxGeometry relative="1" as="geometry" />
        </mxCell>
        <mxCell id="NklmTFZ0WCMY-WN7cFQz-178" style="edgeStyle=orthogonalEdgeStyle;rounded=0;orthogonalLoop=1;jettySize=auto;html=1;entryX=0.5;entryY=0;entryDx=0;entryDy=0;" edge="1" parent="1" source="NklmTFZ0WCMY-WN7cFQz-44" target="NklmTFZ0WCMY-WN7cFQz-169">
          <mxGeometry relative="1" as="geometry" />
        </mxCell>
        <mxCell id="NklmTFZ0WCMY-WN7cFQz-179" style="edgeStyle=orthogonalEdgeStyle;rounded=0;orthogonalLoop=1;jettySize=auto;html=1;entryX=0.5;entryY=0;entryDx=0;entryDy=0;" edge="1" parent="1" source="NklmTFZ0WCMY-WN7cFQz-44" target="NklmTFZ0WCMY-WN7cFQz-174">
          <mxGeometry relative="1" as="geometry">
            <Array as="points">
              <mxPoint x="-400" y="340" />
              <mxPoint x="-110" y="340" />
            </Array>
          </mxGeometry>
        </mxCell>
        <mxCell id="NklmTFZ0WCMY-WN7cFQz-44" value="1. Managed project" style="whiteSpace=wrap;html=1;rounded=1;fillColor=#fff2cc;strokeColor=#d6b656;" vertex="1" parent="1">
          <mxGeometry x="-460" y="230" width="120" height="60" as="geometry" />
        </mxCell>
        <mxCell id="NklmTFZ0WCMY-WN7cFQz-46" value="2.2. Researched&amp;nbsp;manufacture equipment" style="whiteSpace=wrap;html=1;rounded=1;fillColor=#fff2cc;strokeColor=#d6b656;" vertex="1" parent="1">
          <mxGeometry x="60" y="450" width="140" height="60" as="geometry" />
        </mxCell>
        <mxCell id="NklmTFZ0WCMY-WN7cFQz-52" value="" style="edgeStyle=orthogonalEdgeStyle;rounded=0;orthogonalLoop=1;jettySize=auto;html=1;" edge="1" parent="1" source="NklmTFZ0WCMY-WN7cFQz-49" target="NklmTFZ0WCMY-WN7cFQz-51">
          <mxGeometry relative="1" as="geometry" />
        </mxCell>
        <mxCell id="NklmTFZ0WCMY-WN7cFQz-54" style="edgeStyle=orthogonalEdgeStyle;rounded=0;orthogonalLoop=1;jettySize=auto;html=1;entryX=0.5;entryY=0;entryDx=0;entryDy=0;" edge="1" parent="1" source="NklmTFZ0WCMY-WN7cFQz-49" target="NklmTFZ0WCMY-WN7cFQz-53">
          <mxGeometry relative="1" as="geometry">
            <Array as="points">
              <mxPoint x="285" y="430" />
              <mxPoint x="455" y="430" />
            </Array>
          </mxGeometry>
        </mxCell>
        <mxCell id="NklmTFZ0WCMY-WN7cFQz-58" style="edgeStyle=orthogonalEdgeStyle;rounded=0;orthogonalLoop=1;jettySize=auto;html=1;entryX=0.5;entryY=0;entryDx=0;entryDy=0;" edge="1" parent="1" source="NklmTFZ0WCMY-WN7cFQz-49" target="NklmTFZ0WCMY-WN7cFQz-46">
          <mxGeometry relative="1" as="geometry">
            <Array as="points">
              <mxPoint x="285" y="430" />
              <mxPoint x="130" y="430" />
            </Array>
          </mxGeometry>
        </mxCell>
        <mxCell id="NklmTFZ0WCMY-WN7cFQz-49" value="2.2. Researched current manufacturing process" style="whiteSpace=wrap;html=1;rounded=1;fillColor=#fff2cc;strokeColor=#d6b656;" vertex="1" parent="1">
          <mxGeometry x="220" y="350" width="130" height="60" as="geometry" />
        </mxCell>
        <mxCell id="NklmTFZ0WCMY-WN7cFQz-51" value="2.3.1. Researched current production process" style="whiteSpace=wrap;html=1;rounded=1;fillColor=#fff2cc;strokeColor=#d6b656;" vertex="1" parent="1">
          <mxGeometry x="220" y="450" width="130" height="60" as="geometry" />
        </mxCell>
        <mxCell id="NklmTFZ0WCMY-WN7cFQz-53" value="2.3.1. Researched current security &amp;amp; safety&amp;nbsp;measures" style="whiteSpace=wrap;html=1;rounded=1;fillColor=#fff2cc;strokeColor=#d6b656;" vertex="1" parent="1">
          <mxGeometry x="390" y="450" width="130" height="60" as="geometry" />
        </mxCell>
        <mxCell id="NklmTFZ0WCMY-WN7cFQz-55" value="2.3. Researched normative" style="whiteSpace=wrap;html=1;rounded=1;fillColor=#fff2cc;strokeColor=#d6b656;" vertex="1" parent="1">
          <mxGeometry x="510" y="350" width="130" height="60" as="geometry" />
        </mxCell>
        <mxCell id="NklmTFZ0WCMY-WN7cFQz-62" value="" style="edgeStyle=orthogonalEdgeStyle;rounded=0;orthogonalLoop=1;jettySize=auto;html=1;" edge="1" parent="1" source="NklmTFZ0WCMY-WN7cFQz-59" target="NklmTFZ0WCMY-WN7cFQz-61">
          <mxGeometry relative="1" as="geometry">
            <Array as="points">
              <mxPoint x="970" y="320" />
              <mxPoint x="800" y="320" />
            </Array>
          </mxGeometry>
        </mxCell>
        <mxCell id="NklmTFZ0WCMY-WN7cFQz-63" value="" style="edgeStyle=orthogonalEdgeStyle;rounded=0;orthogonalLoop=1;jettySize=auto;html=1;" edge="1" parent="1" source="NklmTFZ0WCMY-WN7cFQz-59" target="NklmTFZ0WCMY-WN7cFQz-61">
          <mxGeometry relative="1" as="geometry">
            <Array as="points">
              <mxPoint x="970" y="320" />
              <mxPoint x="800" y="320" />
            </Array>
          </mxGeometry>
        </mxCell>
        <mxCell id="NklmTFZ0WCMY-WN7cFQz-72" style="edgeStyle=orthogonalEdgeStyle;rounded=0;orthogonalLoop=1;jettySize=auto;html=1;entryX=0.5;entryY=0;entryDx=0;entryDy=0;" edge="1" parent="1" source="NklmTFZ0WCMY-WN7cFQz-59" target="NklmTFZ0WCMY-WN7cFQz-65">
          <mxGeometry relative="1" as="geometry">
            <Array as="points">
              <mxPoint x="970" y="320" />
              <mxPoint x="1130" y="320" />
            </Array>
          </mxGeometry>
        </mxCell>
        <mxCell id="NklmTFZ0WCMY-WN7cFQz-59" value="3. Designed production line" style="whiteSpace=wrap;html=1;rounded=1;fillColor=#fff2cc;strokeColor=#d6b656;" vertex="1" parent="1">
          <mxGeometry x="910" y="230" width="120" height="60" as="geometry" />
        </mxCell>
        <mxCell id="NklmTFZ0WCMY-WN7cFQz-74" style="edgeStyle=orthogonalEdgeStyle;rounded=0;orthogonalLoop=1;jettySize=auto;html=1;entryX=0.5;entryY=0;entryDx=0;entryDy=0;" edge="1" parent="1" source="NklmTFZ0WCMY-WN7cFQz-61" target="NklmTFZ0WCMY-WN7cFQz-64">
          <mxGeometry relative="1" as="geometry" />
        </mxCell>
        <mxCell id="NklmTFZ0WCMY-WN7cFQz-75" style="edgeStyle=orthogonalEdgeStyle;rounded=0;orthogonalLoop=1;jettySize=auto;html=1;entryX=0.5;entryY=0;entryDx=0;entryDy=0;" edge="1" parent="1" source="NklmTFZ0WCMY-WN7cFQz-61" target="NklmTFZ0WCMY-WN7cFQz-73">
          <mxGeometry relative="1" as="geometry" />
        </mxCell>
        <mxCell id="NklmTFZ0WCMY-WN7cFQz-61" value="3.1. Designed structure" style="whiteSpace=wrap;html=1;rounded=1;fillColor=#fff2cc;strokeColor=#d6b656;" vertex="1" parent="1">
          <mxGeometry x="740" y="350" width="120" height="60" as="geometry" />
        </mxCell>
        <mxCell id="NklmTFZ0WCMY-WN7cFQz-64" value="3.1.1. Selected model structure" style="whiteSpace=wrap;html=1;rounded=1;fillColor=#fff2cc;strokeColor=#d6b656;" vertex="1" parent="1">
          <mxGeometry x="660" y="470" width="130" height="60" as="geometry" />
        </mxCell>
        <mxCell id="NklmTFZ0WCMY-WN7cFQz-68" value="" style="edgeStyle=orthogonalEdgeStyle;rounded=0;orthogonalLoop=1;jettySize=auto;html=1;entryX=0.5;entryY=0;entryDx=0;entryDy=0;" edge="1" parent="1" source="NklmTFZ0WCMY-WN7cFQz-65" target="NklmTFZ0WCMY-WN7cFQz-67">
          <mxGeometry relative="1" as="geometry">
            <Array as="points">
              <mxPoint x="1130" y="440" />
              <mxPoint x="1030" y="440" />
            </Array>
          </mxGeometry>
        </mxCell>
        <mxCell id="NklmTFZ0WCMY-WN7cFQz-70" style="edgeStyle=orthogonalEdgeStyle;rounded=0;orthogonalLoop=1;jettySize=auto;html=1;entryX=0.5;entryY=0;entryDx=0;entryDy=0;" edge="1" parent="1" source="NklmTFZ0WCMY-WN7cFQz-65" target="NklmTFZ0WCMY-WN7cFQz-69">
          <mxGeometry relative="1" as="geometry">
            <Array as="points">
              <mxPoint x="1130" y="440" />
              <mxPoint x="1210" y="440" />
            </Array>
          </mxGeometry>
        </mxCell>
        <mxCell id="NklmTFZ0WCMY-WN7cFQz-65" value="3.2. Gotten key performance indicators" style="whiteSpace=wrap;html=1;rounded=1;fillColor=#fff2cc;strokeColor=#d6b656;" vertex="1" parent="1">
          <mxGeometry x="1070" y="340" width="120" height="60" as="geometry" />
        </mxCell>
        <mxCell id="NklmTFZ0WCMY-WN7cFQz-67" value="3.2.1. Created Tecnomatix digital twin" style="whiteSpace=wrap;html=1;rounded=1;fillColor=#fff2cc;strokeColor=#d6b656;" vertex="1" parent="1">
          <mxGeometry x="970" y="470" width="120" height="60" as="geometry" />
        </mxCell>
        <mxCell id="NklmTFZ0WCMY-WN7cFQz-69" value="3.2.2. Parameterized KPI spreadsheet" style="whiteSpace=wrap;html=1;rounded=1;fillColor=#fff2cc;strokeColor=#d6b656;" vertex="1" parent="1">
          <mxGeometry x="1150" y="470" width="120" height="60" as="geometry" />
        </mxCell>
        <mxCell id="NklmTFZ0WCMY-WN7cFQz-77" value="" style="edgeStyle=orthogonalEdgeStyle;rounded=0;orthogonalLoop=1;jettySize=auto;html=1;" edge="1" parent="1" source="NklmTFZ0WCMY-WN7cFQz-73" target="NklmTFZ0WCMY-WN7cFQz-76">
          <mxGeometry relative="1" as="geometry" />
        </mxCell>
        <mxCell id="NklmTFZ0WCMY-WN7cFQz-79" value="" style="edgeStyle=orthogonalEdgeStyle;rounded=0;orthogonalLoop=1;jettySize=auto;html=1;" edge="1" parent="1" source="NklmTFZ0WCMY-WN7cFQz-73" target="NklmTFZ0WCMY-WN7cFQz-78">
          <mxGeometry relative="1" as="geometry" />
        </mxCell>
        <mxCell id="NklmTFZ0WCMY-WN7cFQz-73" value="3.1.1. Designed stages" style="whiteSpace=wrap;html=1;rounded=1;fillColor=#fff2cc;strokeColor=#d6b656;" vertex="1" parent="1">
          <mxGeometry x="820" y="470" width="120" height="60" as="geometry" />
        </mxCell>
        <mxCell id="NklmTFZ0WCMY-WN7cFQz-76" value="3.1.1.1. Designed traditional stages" style="whiteSpace=wrap;html=1;rounded=1;fillColor=#fff2cc;strokeColor=#d6b656;" vertex="1" parent="1">
          <mxGeometry x="700" y="590" width="120" height="60" as="geometry" />
        </mxCell>
        <mxCell id="NklmTFZ0WCMY-WN7cFQz-78" value="3.1.1.2. Designed robotic stages" style="whiteSpace=wrap;html=1;rounded=1;fillColor=#fff2cc;strokeColor=#d6b656;" vertex="1" parent="1">
          <mxGeometry x="920" y="590" width="120" height="60" as="geometry" />
        </mxCell>
        <mxCell id="NklmTFZ0WCMY-WN7cFQz-135" style="edgeStyle=orthogonalEdgeStyle;rounded=0;orthogonalLoop=1;jettySize=auto;html=1;entryX=0.5;entryY=0;entryDx=0;entryDy=0;" edge="1" parent="1" source="NklmTFZ0WCMY-WN7cFQz-80" target="NklmTFZ0WCMY-WN7cFQz-83">
          <mxGeometry relative="1" as="geometry">
            <Array as="points">
              <mxPoint x="2155" y="320" />
              <mxPoint x="1420" y="320" />
            </Array>
          </mxGeometry>
        </mxCell>
        <mxCell id="NklmTFZ0WCMY-WN7cFQz-136" style="edgeStyle=orthogonalEdgeStyle;rounded=0;orthogonalLoop=1;jettySize=auto;html=1;entryX=0.5;entryY=0;entryDx=0;entryDy=0;" edge="1" parent="1" source="NklmTFZ0WCMY-WN7cFQz-80" target="NklmTFZ0WCMY-WN7cFQz-94">
          <mxGeometry relative="1" as="geometry">
            <Array as="points">
              <mxPoint x="2155" y="320" />
              <mxPoint x="1820" y="320" />
            </Array>
          </mxGeometry>
        </mxCell>
        <mxCell id="NklmTFZ0WCMY-WN7cFQz-137" style="edgeStyle=orthogonalEdgeStyle;rounded=0;orthogonalLoop=1;jettySize=auto;html=1;entryX=0.5;entryY=0;entryDx=0;entryDy=0;" edge="1" parent="1" source="NklmTFZ0WCMY-WN7cFQz-80" target="NklmTFZ0WCMY-WN7cFQz-90">
          <mxGeometry relative="1" as="geometry">
            <Array as="points">
              <mxPoint x="2155" y="320" />
              <mxPoint x="2320" y="320" />
            </Array>
          </mxGeometry>
        </mxCell>
        <mxCell id="NklmTFZ0WCMY-WN7cFQz-138" style="edgeStyle=orthogonalEdgeStyle;rounded=0;orthogonalLoop=1;jettySize=auto;html=1;entryX=0.5;entryY=0;entryDx=0;entryDy=0;" edge="1" parent="1" source="NklmTFZ0WCMY-WN7cFQz-80" target="NklmTFZ0WCMY-WN7cFQz-116">
          <mxGeometry relative="1" as="geometry">
            <Array as="points">
              <mxPoint x="2155" y="320" />
              <mxPoint x="2835" y="320" />
            </Array>
          </mxGeometry>
        </mxCell>
        <mxCell id="NklmTFZ0WCMY-WN7cFQz-80" value="4. Design SCADA system" style="rounded=1;whiteSpace=wrap;html=1;fillColor=#fff2cc;strokeColor=#d6b656;" vertex="1" parent="1">
          <mxGeometry x="2090" y="225" width="130" height="70" as="geometry" />
        </mxCell>
        <mxCell id="NklmTFZ0WCMY-WN7cFQz-82" value="4.1.1. Selected sensors and&amp;nbsp;actuators" style="whiteSpace=wrap;html=1;rounded=1;fillColor=#fff2cc;strokeColor=#d6b656;" vertex="1" parent="1">
          <mxGeometry x="1290" y="470" width="120" height="60" as="geometry" />
        </mxCell>
        <mxCell id="NklmTFZ0WCMY-WN7cFQz-86" style="edgeStyle=orthogonalEdgeStyle;rounded=0;orthogonalLoop=1;jettySize=auto;html=1;entryX=0.5;entryY=0;entryDx=0;entryDy=0;" edge="1" parent="1" source="NklmTFZ0WCMY-WN7cFQz-83" target="NklmTFZ0WCMY-WN7cFQz-82">
          <mxGeometry relative="1" as="geometry" />
        </mxCell>
        <mxCell id="NklmTFZ0WCMY-WN7cFQz-88" style="edgeStyle=orthogonalEdgeStyle;rounded=0;orthogonalLoop=1;jettySize=auto;html=1;entryX=0.5;entryY=0;entryDx=0;entryDy=0;" edge="1" parent="1" source="NklmTFZ0WCMY-WN7cFQz-83" target="NklmTFZ0WCMY-WN7cFQz-84">
          <mxGeometry relative="1" as="geometry" />
        </mxCell>
        <mxCell id="NklmTFZ0WCMY-WN7cFQz-83" value="4.1. Selected SCADA components" style="whiteSpace=wrap;html=1;rounded=1;fillColor=#fff2cc;strokeColor=#d6b656;" vertex="1" parent="1">
          <mxGeometry x="1360" y="360" width="120" height="60" as="geometry" />
        </mxCell>
        <mxCell id="NklmTFZ0WCMY-WN7cFQz-84" value="4.1.2. Selected RTU, PLC, MTU and HMIs" style="whiteSpace=wrap;html=1;rounded=1;fillColor=#fff2cc;strokeColor=#d6b656;" vertex="1" parent="1">
          <mxGeometry x="1430" y="470" width="120" height="60" as="geometry" />
        </mxCell>
        <mxCell id="NklmTFZ0WCMY-WN7cFQz-112" style="edgeStyle=orthogonalEdgeStyle;rounded=0;orthogonalLoop=1;jettySize=auto;html=1;entryX=0.5;entryY=0;entryDx=0;entryDy=0;" edge="1" parent="1" source="NklmTFZ0WCMY-WN7cFQz-90" target="NklmTFZ0WCMY-WN7cFQz-92">
          <mxGeometry relative="1" as="geometry">
            <Array as="points">
              <mxPoint x="2320" y="440" />
              <mxPoint x="2220" y="440" />
            </Array>
          </mxGeometry>
        </mxCell>
        <mxCell id="NklmTFZ0WCMY-WN7cFQz-113" style="edgeStyle=orthogonalEdgeStyle;rounded=0;orthogonalLoop=1;jettySize=auto;html=1;entryX=0.5;entryY=0;entryDx=0;entryDy=0;" edge="1" parent="1" source="NklmTFZ0WCMY-WN7cFQz-90" target="NklmTFZ0WCMY-WN7cFQz-93">
          <mxGeometry relative="1" as="geometry">
            <Array as="points">
              <mxPoint x="2320" y="440" />
              <mxPoint x="2370" y="440" />
            </Array>
          </mxGeometry>
        </mxCell>
        <mxCell id="NklmTFZ0WCMY-WN7cFQz-115" style="edgeStyle=orthogonalEdgeStyle;rounded=0;orthogonalLoop=1;jettySize=auto;html=1;entryX=0.5;entryY=0;entryDx=0;entryDy=0;" edge="1" parent="1" source="NklmTFZ0WCMY-WN7cFQz-90" target="NklmTFZ0WCMY-WN7cFQz-114">
          <mxGeometry relative="1" as="geometry">
            <Array as="points">
              <mxPoint x="2320" y="440" />
              <mxPoint x="2520" y="440" />
            </Array>
          </mxGeometry>
        </mxCell>
        <mxCell id="NklmTFZ0WCMY-WN7cFQz-90" value="4.2. Created NX digital twin" style="whiteSpace=wrap;html=1;rounded=1;fillColor=#fff2cc;strokeColor=#d6b656;" vertex="1" parent="1">
          <mxGeometry x="2260" y="360" width="120" height="60" as="geometry" />
        </mxCell>
        <mxCell id="NklmTFZ0WCMY-WN7cFQz-92" value="4.2.1. Created &amp;amp; imported 3D models" style="whiteSpace=wrap;html=1;rounded=1;fillColor=#fff2cc;strokeColor=#d6b656;" vertex="1" parent="1">
          <mxGeometry x="2160" y="470" width="120" height="60" as="geometry" />
        </mxCell>
        <mxCell id="NklmTFZ0WCMY-WN7cFQz-93" value="4.2.2. Programmed mechanisms" style="whiteSpace=wrap;html=1;rounded=1;fillColor=#fff2cc;strokeColor=#d6b656;" vertex="1" parent="1">
          <mxGeometry x="2310" y="470" width="120" height="60" as="geometry" />
        </mxCell>
        <mxCell id="NklmTFZ0WCMY-WN7cFQz-101" style="edgeStyle=orthogonalEdgeStyle;rounded=0;orthogonalLoop=1;jettySize=auto;html=1;entryX=0.5;entryY=0;entryDx=0;entryDy=0;" edge="1" parent="1" source="NklmTFZ0WCMY-WN7cFQz-94" target="NklmTFZ0WCMY-WN7cFQz-100">
          <mxGeometry relative="1" as="geometry">
            <Array as="points">
              <mxPoint x="1820" y="460" />
              <mxPoint x="1650" y="460" />
            </Array>
          </mxGeometry>
        </mxCell>
        <mxCell id="NklmTFZ0WCMY-WN7cFQz-103" style="edgeStyle=orthogonalEdgeStyle;rounded=0;orthogonalLoop=1;jettySize=auto;html=1;entryX=0.5;entryY=0;entryDx=0;entryDy=0;" edge="1" parent="1" source="NklmTFZ0WCMY-WN7cFQz-94" target="NklmTFZ0WCMY-WN7cFQz-102">
          <mxGeometry relative="1" as="geometry">
            <Array as="points">
              <mxPoint x="1820" y="460" />
              <mxPoint x="1970" y="460" />
            </Array>
          </mxGeometry>
        </mxCell>
        <mxCell id="NklmTFZ0WCMY-WN7cFQz-94" value="4.2. Created programms" style="whiteSpace=wrap;html=1;rounded=1;fillColor=#fff2cc;strokeColor=#d6b656;" vertex="1" parent="1">
          <mxGeometry x="1760" y="360" width="120" height="60" as="geometry" />
        </mxCell>
        <mxCell id="NklmTFZ0WCMY-WN7cFQz-96" value="4.2.1.2.&amp;nbsp;Designed ladder routines" style="whiteSpace=wrap;html=1;rounded=1;fillColor=#fff2cc;strokeColor=#d6b656;" vertex="1" parent="1">
          <mxGeometry x="1670" y="590" width="120" height="60" as="geometry" />
        </mxCell>
        <mxCell id="NklmTFZ0WCMY-WN7cFQz-97" value="4.2.2.1. Created tags" style="whiteSpace=wrap;html=1;rounded=1;fillColor=#fff2cc;strokeColor=#d6b656;" vertex="1" parent="1">
          <mxGeometry x="1850" y="600" width="120" height="60" as="geometry" />
        </mxCell>
        <mxCell id="NklmTFZ0WCMY-WN7cFQz-105" style="edgeStyle=orthogonalEdgeStyle;rounded=0;orthogonalLoop=1;jettySize=auto;html=1;entryX=0.5;entryY=0;entryDx=0;entryDy=0;" edge="1" parent="1" source="NklmTFZ0WCMY-WN7cFQz-100" target="NklmTFZ0WCMY-WN7cFQz-96">
          <mxGeometry relative="1" as="geometry">
            <Array as="points">
              <mxPoint x="1650" y="570" />
              <mxPoint x="1730" y="570" />
            </Array>
          </mxGeometry>
        </mxCell>
        <mxCell id="NklmTFZ0WCMY-WN7cFQz-110" style="edgeStyle=orthogonalEdgeStyle;rounded=0;orthogonalLoop=1;jettySize=auto;html=1;entryX=0.5;entryY=0;entryDx=0;entryDy=0;" edge="1" parent="1" source="NklmTFZ0WCMY-WN7cFQz-100" target="NklmTFZ0WCMY-WN7cFQz-109">
          <mxGeometry relative="1" as="geometry">
            <Array as="points">
              <mxPoint x="1650" y="570" />
              <mxPoint x="1580" y="570" />
            </Array>
          </mxGeometry>
        </mxCell>
        <mxCell id="NklmTFZ0WCMY-WN7cFQz-100" value="4.2.1. Created TIA-Portal project" style="whiteSpace=wrap;html=1;rounded=1;fillColor=#fff2cc;strokeColor=#d6b656;" vertex="1" parent="1">
          <mxGeometry x="1590" y="500" width="120" height="60" as="geometry" />
        </mxCell>
        <mxCell id="NklmTFZ0WCMY-WN7cFQz-104" style="edgeStyle=orthogonalEdgeStyle;rounded=0;orthogonalLoop=1;jettySize=auto;html=1;entryX=0.5;entryY=0;entryDx=0;entryDy=0;" edge="1" parent="1" source="NklmTFZ0WCMY-WN7cFQz-102" target="NklmTFZ0WCMY-WN7cFQz-97">
          <mxGeometry relative="1" as="geometry" />
        </mxCell>
        <mxCell id="NklmTFZ0WCMY-WN7cFQz-111" style="edgeStyle=orthogonalEdgeStyle;rounded=0;orthogonalLoop=1;jettySize=auto;html=1;entryX=0.5;entryY=0;entryDx=0;entryDy=0;" edge="1" parent="1" source="NklmTFZ0WCMY-WN7cFQz-102" target="NklmTFZ0WCMY-WN7cFQz-106">
          <mxGeometry relative="1" as="geometry">
            <Array as="points">
              <mxPoint x="1970" y="580" />
              <mxPoint x="2070" y="580" />
            </Array>
          </mxGeometry>
        </mxCell>
        <mxCell id="NklmTFZ0WCMY-WN7cFQz-102" value="4.2.2. Created STUDIO 5000 project" style="whiteSpace=wrap;html=1;rounded=1;fillColor=#fff2cc;strokeColor=#d6b656;" vertex="1" parent="1">
          <mxGeometry x="1910" y="500" width="120" height="60" as="geometry" />
        </mxCell>
        <mxCell id="NklmTFZ0WCMY-WN7cFQz-106" value="4.2.2.2. Designed GRAFCET routines" style="whiteSpace=wrap;html=1;rounded=1;fillColor=#fff2cc;strokeColor=#d6b656;" vertex="1" parent="1">
          <mxGeometry x="2010" y="600" width="120" height="60" as="geometry" />
        </mxCell>
        <mxCell id="NklmTFZ0WCMY-WN7cFQz-109" value="4.2.1.1. Created tags" style="whiteSpace=wrap;html=1;rounded=1;fillColor=#fff2cc;strokeColor=#d6b656;" vertex="1" parent="1">
          <mxGeometry x="1520" y="590" width="120" height="60" as="geometry" />
        </mxCell>
        <mxCell id="NklmTFZ0WCMY-WN7cFQz-114" value="4.2.3. Created OPC signals" style="whiteSpace=wrap;html=1;rounded=1;fillColor=#fff2cc;strokeColor=#d6b656;" vertex="1" parent="1">
          <mxGeometry x="2460" y="470" width="120" height="60" as="geometry" />
        </mxCell>
        <mxCell id="NklmTFZ0WCMY-WN7cFQz-119" value="" style="edgeStyle=orthogonalEdgeStyle;rounded=0;orthogonalLoop=1;jettySize=auto;html=1;" edge="1" parent="1" source="NklmTFZ0WCMY-WN7cFQz-116" target="NklmTFZ0WCMY-WN7cFQz-118">
          <mxGeometry relative="1" as="geometry">
            <Array as="points">
              <mxPoint x="2835" y="450" />
              <mxPoint x="2690" y="450" />
            </Array>
          </mxGeometry>
        </mxCell>
        <mxCell id="NklmTFZ0WCMY-WN7cFQz-133" style="edgeStyle=orthogonalEdgeStyle;rounded=0;orthogonalLoop=1;jettySize=auto;html=1;entryX=0.5;entryY=0;entryDx=0;entryDy=0;" edge="1" parent="1" source="NklmTFZ0WCMY-WN7cFQz-116" target="NklmTFZ0WCMY-WN7cFQz-120">
          <mxGeometry relative="1" as="geometry">
            <Array as="points">
              <mxPoint x="2835" y="450" />
              <mxPoint x="2880" y="450" />
            </Array>
          </mxGeometry>
        </mxCell>
        <mxCell id="NklmTFZ0WCMY-WN7cFQz-116" value="4.3. Designed Ignition SCADA system" style="rounded=1;whiteSpace=wrap;html=1;fillColor=#fff2cc;strokeColor=#d6b656;" vertex="1" parent="1">
          <mxGeometry x="2770" y="360" width="130" height="70" as="geometry" />
        </mxCell>
        <mxCell id="NklmTFZ0WCMY-WN7cFQz-118" value="4.3.1. Gotten OPC signals" style="whiteSpace=wrap;html=1;rounded=1;fillColor=#fff2cc;strokeColor=#d6b656;" vertex="1" parent="1">
          <mxGeometry x="2630" y="480" width="120" height="60" as="geometry" />
        </mxCell>
        <mxCell id="NklmTFZ0WCMY-WN7cFQz-139" style="edgeStyle=orthogonalEdgeStyle;rounded=0;orthogonalLoop=1;jettySize=auto;html=1;entryX=0.5;entryY=0;entryDx=0;entryDy=0;" edge="1" parent="1" source="NklmTFZ0WCMY-WN7cFQz-120" target="NklmTFZ0WCMY-WN7cFQz-129">
          <mxGeometry relative="1" as="geometry">
            <Array as="points">
              <mxPoint x="2880" y="570" />
              <mxPoint x="2720" y="570" />
            </Array>
          </mxGeometry>
        </mxCell>
        <mxCell id="NklmTFZ0WCMY-WN7cFQz-141" style="edgeStyle=orthogonalEdgeStyle;rounded=0;orthogonalLoop=1;jettySize=auto;html=1;entryX=0.5;entryY=0;entryDx=0;entryDy=0;" edge="1" parent="1" source="NklmTFZ0WCMY-WN7cFQz-120" target="NklmTFZ0WCMY-WN7cFQz-121">
          <mxGeometry relative="1" as="geometry">
            <mxPoint x="2890" y="580" as="targetPoint" />
          </mxGeometry>
        </mxCell>
        <mxCell id="NklmTFZ0WCMY-WN7cFQz-142" style="edgeStyle=orthogonalEdgeStyle;rounded=0;orthogonalLoop=1;jettySize=auto;html=1;entryX=0.5;entryY=0;entryDx=0;entryDy=0;" edge="1" parent="1" source="NklmTFZ0WCMY-WN7cFQz-120" target="NklmTFZ0WCMY-WN7cFQz-131">
          <mxGeometry relative="1" as="geometry">
            <Array as="points">
              <mxPoint x="2880" y="570" />
              <mxPoint x="3050" y="570" />
            </Array>
          </mxGeometry>
        </mxCell>
        <mxCell id="NklmTFZ0WCMY-WN7cFQz-120" value="4.3.2. Designed HMIs" style="whiteSpace=wrap;html=1;rounded=1;fillColor=#fff2cc;strokeColor=#d6b656;" vertex="1" parent="1">
          <mxGeometry x="2820" y="480" width="120" height="60" as="geometry" />
        </mxCell>
        <mxCell id="NklmTFZ0WCMY-WN7cFQz-124" value="" style="edgeStyle=orthogonalEdgeStyle;rounded=0;orthogonalLoop=1;jettySize=auto;html=1;entryX=0.5;entryY=0;entryDx=0;entryDy=0;" edge="1" parent="1" source="NklmTFZ0WCMY-WN7cFQz-121" target="NklmTFZ0WCMY-WN7cFQz-123">
          <mxGeometry relative="1" as="geometry">
            <Array as="points">
              <mxPoint x="2880" y="690" />
              <mxPoint x="2750" y="690" />
            </Array>
          </mxGeometry>
        </mxCell>
        <mxCell id="NklmTFZ0WCMY-WN7cFQz-127" style="edgeStyle=orthogonalEdgeStyle;rounded=0;orthogonalLoop=1;jettySize=auto;html=1;entryX=0.5;entryY=0;entryDx=0;entryDy=0;" edge="1" parent="1" source="NklmTFZ0WCMY-WN7cFQz-121" target="NklmTFZ0WCMY-WN7cFQz-125">
          <mxGeometry relative="1" as="geometry">
            <Array as="points">
              <mxPoint x="2880" y="720" />
              <mxPoint x="2880" y="720" />
            </Array>
          </mxGeometry>
        </mxCell>
        <mxCell id="NklmTFZ0WCMY-WN7cFQz-128" style="edgeStyle=orthogonalEdgeStyle;rounded=0;orthogonalLoop=1;jettySize=auto;html=1;entryX=0.5;entryY=0;entryDx=0;entryDy=0;" edge="1" parent="1" source="NklmTFZ0WCMY-WN7cFQz-121" target="NklmTFZ0WCMY-WN7cFQz-126">
          <mxGeometry relative="1" as="geometry">
            <Array as="points">
              <mxPoint x="2880" y="690" />
              <mxPoint x="3010" y="690" />
            </Array>
          </mxGeometry>
        </mxCell>
        <mxCell id="NklmTFZ0WCMY-WN7cFQz-121" value="4.3.2.2. Design alerts" style="whiteSpace=wrap;html=1;rounded=1;fillColor=#fff2cc;strokeColor=#d6b656;" vertex="1" parent="1">
          <mxGeometry x="2820" y="620" width="120" height="60" as="geometry" />
        </mxCell>
        <mxCell id="NklmTFZ0WCMY-WN7cFQz-123" value="4.3.2.2.1. Designed maintenance alerts" style="whiteSpace=wrap;html=1;rounded=1;fillColor=#fff2cc;strokeColor=#d6b656;" vertex="1" parent="1">
          <mxGeometry x="2690" y="730" width="120" height="60" as="geometry" />
        </mxCell>
        <mxCell id="NklmTFZ0WCMY-WN7cFQz-125" value="4.3.2.2.2. Designed security alerts" style="whiteSpace=wrap;html=1;rounded=1;fillColor=#fff2cc;strokeColor=#d6b656;" vertex="1" parent="1">
          <mxGeometry x="2820" y="730" width="120" height="60" as="geometry" />
        </mxCell>
        <mxCell id="NklmTFZ0WCMY-WN7cFQz-126" value="4.3.2.2.3. Designed failure alerts" style="whiteSpace=wrap;html=1;rounded=1;fillColor=#fff2cc;strokeColor=#d6b656;" vertex="1" parent="1">
          <mxGeometry x="2950" y="730" width="120" height="60" as="geometry" />
        </mxCell>
        <mxCell id="NklmTFZ0WCMY-WN7cFQz-129" value="4.3.2.1. Created basedata" style="whiteSpace=wrap;html=1;rounded=1;fillColor=#fff2cc;strokeColor=#d6b656;" vertex="1" parent="1">
          <mxGeometry x="2660" y="620" width="120" height="60" as="geometry" />
        </mxCell>
        <mxCell id="NklmTFZ0WCMY-WN7cFQz-131" value="4.3.2.3. Design indicators" style="whiteSpace=wrap;html=1;rounded=1;fillColor=#fff2cc;strokeColor=#d6b656;" vertex="1" parent="1">
          <mxGeometry x="2990" y="620" width="120" height="60" as="geometry" />
        </mxCell>
        <mxCell id="NklmTFZ0WCMY-WN7cFQz-160" style="edgeStyle=orthogonalEdgeStyle;rounded=0;orthogonalLoop=1;jettySize=auto;html=1;entryX=0.5;entryY=0;entryDx=0;entryDy=0;" edge="1" parent="1" source="NklmTFZ0WCMY-WN7cFQz-143" target="NklmTFZ0WCMY-WN7cFQz-145">
          <mxGeometry relative="1" as="geometry" />
        </mxCell>
        <mxCell id="NklmTFZ0WCMY-WN7cFQz-161" style="edgeStyle=orthogonalEdgeStyle;rounded=0;orthogonalLoop=1;jettySize=auto;html=1;entryX=0.5;entryY=0;entryDx=0;entryDy=0;" edge="1" parent="1" source="NklmTFZ0WCMY-WN7cFQz-143" target="NklmTFZ0WCMY-WN7cFQz-147">
          <mxGeometry relative="1" as="geometry">
            <Array as="points">
              <mxPoint x="3365" y="330" />
              <mxPoint x="3905" y="330" />
            </Array>
          </mxGeometry>
        </mxCell>
        <mxCell id="NklmTFZ0WCMY-WN7cFQz-143" value="5. Designed economics proposal" style="rounded=1;whiteSpace=wrap;html=1;fillColor=#fff2cc;strokeColor=#d6b656;" vertex="1" parent="1">
          <mxGeometry x="3300" y="225" width="130" height="70" as="geometry" />
        </mxCell>
        <mxCell id="NklmTFZ0WCMY-WN7cFQz-149" value="" style="edgeStyle=orthogonalEdgeStyle;rounded=0;orthogonalLoop=1;jettySize=auto;html=1;" edge="1" parent="1" source="NklmTFZ0WCMY-WN7cFQz-145" target="NklmTFZ0WCMY-WN7cFQz-148">
          <mxGeometry relative="1" as="geometry">
            <Array as="points">
              <mxPoint x="3365" y="470" />
              <mxPoint x="3180" y="470" />
            </Array>
          </mxGeometry>
        </mxCell>
        <mxCell id="NklmTFZ0WCMY-WN7cFQz-152" style="edgeStyle=orthogonalEdgeStyle;rounded=0;orthogonalLoop=1;jettySize=auto;html=1;entryX=0.5;entryY=0;entryDx=0;entryDy=0;" edge="1" parent="1" source="NklmTFZ0WCMY-WN7cFQz-145" target="NklmTFZ0WCMY-WN7cFQz-150">
          <mxGeometry relative="1" as="geometry" />
        </mxCell>
        <mxCell id="NklmTFZ0WCMY-WN7cFQz-168" style="edgeStyle=orthogonalEdgeStyle;rounded=0;orthogonalLoop=1;jettySize=auto;html=1;entryX=0.5;entryY=0;entryDx=0;entryDy=0;" edge="1" parent="1" source="NklmTFZ0WCMY-WN7cFQz-145" target="NklmTFZ0WCMY-WN7cFQz-167">
          <mxGeometry relative="1" as="geometry">
            <Array as="points">
              <mxPoint x="3365" y="470" />
              <mxPoint x="3520" y="470" />
            </Array>
          </mxGeometry>
        </mxCell>
        <mxCell id="NklmTFZ0WCMY-WN7cFQz-145" value="5.1. Studied market" style="rounded=1;whiteSpace=wrap;html=1;fillColor=#fff2cc;strokeColor=#d6b656;" vertex="1" parent="1">
          <mxGeometry x="3300" y="360" width="130" height="70" as="geometry" />
        </mxCell>
        <mxCell id="NklmTFZ0WCMY-WN7cFQz-163" value="" style="edgeStyle=orthogonalEdgeStyle;rounded=0;orthogonalLoop=1;jettySize=auto;html=1;" edge="1" parent="1" source="NklmTFZ0WCMY-WN7cFQz-146" target="NklmTFZ0WCMY-WN7cFQz-162">
          <mxGeometry relative="1" as="geometry" />
        </mxCell>
        <mxCell id="NklmTFZ0WCMY-WN7cFQz-165" style="edgeStyle=orthogonalEdgeStyle;rounded=0;orthogonalLoop=1;jettySize=auto;html=1;entryX=0.5;entryY=0;entryDx=0;entryDy=0;" edge="1" parent="1" source="NklmTFZ0WCMY-WN7cFQz-146" target="NklmTFZ0WCMY-WN7cFQz-164">
          <mxGeometry relative="1" as="geometry">
            <Array as="points">
              <mxPoint x="3747" y="600" />
              <mxPoint x="3823" y="600" />
            </Array>
          </mxGeometry>
        </mxCell>
        <mxCell id="NklmTFZ0WCMY-WN7cFQz-146" value="5.2.1. Calculated production line costs" style="rounded=1;whiteSpace=wrap;html=1;fillColor=#fff2cc;strokeColor=#d6b656;" vertex="1" parent="1">
          <mxGeometry x="3682" y="500" width="130" height="70" as="geometry" />
        </mxCell>
        <mxCell id="NklmTFZ0WCMY-WN7cFQz-153" style="edgeStyle=orthogonalEdgeStyle;rounded=0;orthogonalLoop=1;jettySize=auto;html=1;entryX=0.5;entryY=0;entryDx=0;entryDy=0;" edge="1" parent="1" source="NklmTFZ0WCMY-WN7cFQz-147" target="NklmTFZ0WCMY-WN7cFQz-146">
          <mxGeometry relative="1" as="geometry">
            <Array as="points">
              <mxPoint x="3905" y="460" />
              <mxPoint x="3747" y="460" />
            </Array>
          </mxGeometry>
        </mxCell>
        <mxCell id="NklmTFZ0WCMY-WN7cFQz-156" style="edgeStyle=orthogonalEdgeStyle;rounded=0;orthogonalLoop=1;jettySize=auto;html=1;entryX=0.5;entryY=0;entryDx=0;entryDy=0;" edge="1" parent="1" source="NklmTFZ0WCMY-WN7cFQz-147" target="NklmTFZ0WCMY-WN7cFQz-154">
          <mxGeometry relative="1" as="geometry">
            <Array as="points">
              <mxPoint x="3812" y="460" />
              <mxPoint x="3915" y="460" />
            </Array>
          </mxGeometry>
        </mxCell>
        <mxCell id="NklmTFZ0WCMY-WN7cFQz-157" style="edgeStyle=orthogonalEdgeStyle;rounded=0;orthogonalLoop=1;jettySize=auto;html=1;entryX=0.5;entryY=0;entryDx=0;entryDy=0;" edge="1" parent="1" source="NklmTFZ0WCMY-WN7cFQz-147" target="NklmTFZ0WCMY-WN7cFQz-155">
          <mxGeometry relative="1" as="geometry">
            <Array as="points">
              <mxPoint x="3905" y="460" />
              <mxPoint x="4235" y="460" />
            </Array>
          </mxGeometry>
        </mxCell>
        <mxCell id="NklmTFZ0WCMY-WN7cFQz-159" style="edgeStyle=orthogonalEdgeStyle;rounded=0;orthogonalLoop=1;jettySize=auto;html=1;entryX=0.5;entryY=0;entryDx=0;entryDy=0;" edge="1" parent="1" source="NklmTFZ0WCMY-WN7cFQz-147" target="NklmTFZ0WCMY-WN7cFQz-158">
          <mxGeometry relative="1" as="geometry">
            <Array as="points">
              <mxPoint x="3905" y="460" />
              <mxPoint x="4405" y="460" />
            </Array>
          </mxGeometry>
        </mxCell>
        <mxCell id="NklmTFZ0WCMY-WN7cFQz-192" style="edgeStyle=orthogonalEdgeStyle;rounded=0;orthogonalLoop=1;jettySize=auto;html=1;entryX=0.5;entryY=0;entryDx=0;entryDy=0;" edge="1" parent="1" source="NklmTFZ0WCMY-WN7cFQz-147" target="NklmTFZ0WCMY-WN7cFQz-190">
          <mxGeometry relative="1" as="geometry" />
        </mxCell>
        <mxCell id="NklmTFZ0WCMY-WN7cFQz-147" value="5.2. Parameterized relevant performance indicators spreadsheet" style="rounded=1;whiteSpace=wrap;html=1;fillColor=#fff2cc;strokeColor=#d6b656;" vertex="1" parent="1">
          <mxGeometry x="3840" y="360" width="130" height="70" as="geometry" />
        </mxCell>
        <mxCell id="NklmTFZ0WCMY-WN7cFQz-148" value="5.1.1. Found production indicators" style="whiteSpace=wrap;html=1;rounded=1;fillColor=#fff2cc;strokeColor=#d6b656;" vertex="1" parent="1">
          <mxGeometry x="3120" y="515" width="120" height="60" as="geometry" />
        </mxCell>
        <mxCell id="NklmTFZ0WCMY-WN7cFQz-150" value="5.1.2. Found market profits" style="whiteSpace=wrap;html=1;rounded=1;fillColor=#fff2cc;strokeColor=#d6b656;" vertex="1" parent="1">
          <mxGeometry x="3305" y="515" width="120" height="60" as="geometry" />
        </mxCell>
        <mxCell id="NklmTFZ0WCMY-WN7cFQz-154" value="5.2.3. Estimated products price" style="rounded=1;whiteSpace=wrap;html=1;fillColor=#fff2cc;strokeColor=#d6b656;" vertex="1" parent="1">
          <mxGeometry x="4010" y="500" width="130" height="70" as="geometry" />
        </mxCell>
        <mxCell id="NklmTFZ0WCMY-WN7cFQz-155" value="5.2.4. Estimated amount of products" style="rounded=1;whiteSpace=wrap;html=1;fillColor=#fff2cc;strokeColor=#d6b656;" vertex="1" parent="1">
          <mxGeometry x="4170" y="500" width="130" height="70" as="geometry" />
        </mxCell>
        <mxCell id="NklmTFZ0WCMY-WN7cFQz-158" value="5.2.5. Calculated performance indicators" style="rounded=1;whiteSpace=wrap;html=1;fillColor=#fff2cc;strokeColor=#d6b656;" vertex="1" parent="1">
          <mxGeometry x="4340" y="500" width="130" height="70" as="geometry" />
        </mxCell>
        <mxCell id="NklmTFZ0WCMY-WN7cFQz-162" value="5.2.1.1. Estimated APUs" style="whiteSpace=wrap;html=1;rounded=1;fillColor=#fff2cc;strokeColor=#d6b656;" vertex="1" parent="1">
          <mxGeometry x="3610" y="630" width="120" height="60" as="geometry" />
        </mxCell>
        <mxCell id="NklmTFZ0WCMY-WN7cFQz-164" value="5.2.1.2. Added APUs" style="whiteSpace=wrap;html=1;rounded=1;fillColor=#fff2cc;strokeColor=#d6b656;" vertex="1" parent="1">
          <mxGeometry x="3763" y="630" width="120" height="60" as="geometry" />
        </mxCell>
        <mxCell id="NklmTFZ0WCMY-WN7cFQz-167" value="5.1.3. Found&amp;nbsp;&lt;span style=&quot;text-align: left;&quot;&gt;competition&lt;/span&gt;" style="whiteSpace=wrap;html=1;rounded=1;fillColor=#fff2cc;strokeColor=#d6b656;" vertex="1" parent="1">
          <mxGeometry x="3460" y="515" width="120" height="60" as="geometry" />
        </mxCell>
        <mxCell id="NklmTFZ0WCMY-WN7cFQz-169" value="1.4. Created execution matrix" style="whiteSpace=wrap;html=1;rounded=1;fillColor=#fff2cc;strokeColor=#d6b656;" vertex="1" parent="1">
          <mxGeometry x="-360" y="390" width="120" height="60" as="geometry" />
        </mxCell>
        <mxCell id="NklmTFZ0WCMY-WN7cFQz-181" value="" style="edgeStyle=orthogonalEdgeStyle;rounded=0;orthogonalLoop=1;jettySize=auto;html=1;" edge="1" parent="1" source="NklmTFZ0WCMY-WN7cFQz-174" target="NklmTFZ0WCMY-WN7cFQz-180">
          <mxGeometry relative="1" as="geometry">
            <Array as="points">
              <mxPoint x="-110" y="610" />
              <mxPoint x="-343" y="610" />
            </Array>
          </mxGeometry>
        </mxCell>
        <mxCell id="NklmTFZ0WCMY-WN7cFQz-183" style="edgeStyle=orthogonalEdgeStyle;rounded=0;orthogonalLoop=1;jettySize=auto;html=1;entryX=0.5;entryY=0;entryDx=0;entryDy=0;" edge="1" parent="1" source="NklmTFZ0WCMY-WN7cFQz-174" target="NklmTFZ0WCMY-WN7cFQz-182">
          <mxGeometry relative="1" as="geometry">
            <Array as="points">
              <mxPoint x="-110" y="610" />
              <mxPoint x="-183" y="610" />
            </Array>
          </mxGeometry>
        </mxCell>
        <mxCell id="NklmTFZ0WCMY-WN7cFQz-185" style="edgeStyle=orthogonalEdgeStyle;rounded=0;orthogonalLoop=1;jettySize=auto;html=1;entryX=0.5;entryY=0;entryDx=0;entryDy=0;" edge="1" parent="1" source="NklmTFZ0WCMY-WN7cFQz-174" target="NklmTFZ0WCMY-WN7cFQz-184">
          <mxGeometry relative="1" as="geometry">
            <Array as="points">
              <mxPoint x="-110" y="610" />
              <mxPoint x="-13" y="610" />
            </Array>
          </mxGeometry>
        </mxCell>
        <mxCell id="NklmTFZ0WCMY-WN7cFQz-187" style="edgeStyle=orthogonalEdgeStyle;rounded=0;orthogonalLoop=1;jettySize=auto;html=1;entryX=0.5;entryY=0;entryDx=0;entryDy=0;" edge="1" parent="1" source="NklmTFZ0WCMY-WN7cFQz-174" target="NklmTFZ0WCMY-WN7cFQz-186">
          <mxGeometry relative="1" as="geometry">
            <Array as="points">
              <mxPoint x="-110" y="610" />
              <mxPoint x="130" y="610" />
            </Array>
          </mxGeometry>
        </mxCell>
        <mxCell id="NklmTFZ0WCMY-WN7cFQz-189" style="edgeStyle=orthogonalEdgeStyle;rounded=0;orthogonalLoop=1;jettySize=auto;html=1;entryX=0.5;entryY=0;entryDx=0;entryDy=0;" edge="1" parent="1" source="NklmTFZ0WCMY-WN7cFQz-174" target="NklmTFZ0WCMY-WN7cFQz-188">
          <mxGeometry relative="1" as="geometry">
            <Array as="points">
              <mxPoint x="-110" y="610" />
              <mxPoint x="280" y="610" />
            </Array>
          </mxGeometry>
        </mxCell>
        <mxCell id="NklmTFZ0WCMY-WN7cFQz-174" value="1.5. Closed project" style="whiteSpace=wrap;html=1;rounded=1;fillColor=#fff2cc;strokeColor=#d6b656;" vertex="1" parent="1">
          <mxGeometry x="-170" y="390" width="120" height="60" as="geometry" />
        </mxCell>
        <mxCell id="NklmTFZ0WCMY-WN7cFQz-180" value="1.5.1. Finished contract" style="whiteSpace=wrap;html=1;rounded=1;fillColor=#fff2cc;strokeColor=#d6b656;" vertex="1" parent="1">
          <mxGeometry x="-403" y="650" width="120" height="60" as="geometry" />
        </mxCell>
        <mxCell id="NklmTFZ0WCMY-WN7cFQz-182" value="1.5.2. Notified stakeholders" style="whiteSpace=wrap;html=1;rounded=1;fillColor=#fff2cc;strokeColor=#d6b656;" vertex="1" parent="1">
          <mxGeometry x="-243" y="650" width="120" height="60" as="geometry" />
        </mxCell>
        <mxCell id="NklmTFZ0WCMY-WN7cFQz-184" value="1.5.3. Documented lessons" style="whiteSpace=wrap;html=1;rounded=1;fillColor=#fff2cc;strokeColor=#d6b656;" vertex="1" parent="1">
          <mxGeometry x="-73" y="650" width="120" height="60" as="geometry" />
        </mxCell>
        <mxCell id="NklmTFZ0WCMY-WN7cFQz-186" value="1.5.3. Finished human &amp;amp; physical resources" style="whiteSpace=wrap;html=1;rounded=1;fillColor=#fff2cc;strokeColor=#d6b656;" vertex="1" parent="1">
          <mxGeometry x="70" y="650" width="120" height="60" as="geometry" />
        </mxCell>
        <mxCell id="NklmTFZ0WCMY-WN7cFQz-188" value="1.5.4. Celebrated succes" style="whiteSpace=wrap;html=1;rounded=1;fillColor=#fff2cc;strokeColor=#d6b656;" vertex="1" parent="1">
          <mxGeometry x="220" y="650" width="120" height="60" as="geometry" />
        </mxCell>
        <mxCell id="NklmTFZ0WCMY-WN7cFQz-190" value="5.2.2. Estimated products price" style="rounded=1;whiteSpace=wrap;html=1;fillColor=#fff2cc;strokeColor=#d6b656;" vertex="1" parent="1">
          <mxGeometry x="3840" y="495" width="130" height="70" as="geometry" />
        </mxCell>
      </root>
    </mxGraphModel>
  </diagram>
</mxfile>
